# xmcd
#
# Track frame offsets: 
#        150
#        17648
#        36851
#        57247
#        76574
#        94421
#        118113
#        137793
#        155312
#        177938
#        194976
#
# Disc length: 2742 seconds
#
# Revision: 1
# Processed by: cddbd v1.5.2PL0 Copyright (c) Steve Scherf et al.
# Submitted via: ExactAudioCopy v0.99pb4
#
DISCID=910ab40b
DTITLE=Danny Wright - do you live do you love
DYEAR=1900
DGENRE=New Age
TTITLE0=Do You Live, Do You Love
TTITLE1=Heaven's Love
TTITLE2=At River's Edge
TTITLE3=Hayden's Spirit
TTITLE4=Forever
TTITLE5=Largo from Antonin Dvorak's Symphony No. 9, From a New World
TTITLE6=Whne You Hold My Hand
TTITLE7=A Time to Heal
TTITLE8=New Hope for Peace
TTITLE9=In Time We Met
TTITLE10=The Friendship Theme from the Motion Picture Beaches
EXTD=
EXTT0=
EXTT1=
EXTT2=
EXTT3=
EXTT4=
EXTT5=
EXTT6=
EXTT7=
EXTT8=
EXTT9=
EXTT10=
PLAYORDER=
